<svg width="71" height="68" viewBox="0 0 71 68" fill="none" xmlns="http://www.w3.org/2000/svg">
<path d="M3.75928 61.4327C2.25134 64.3486 4.36783 67.8259 7.65058 67.8259H63.3491C66.6319 67.8259 68.7484 64.3486 67.2404 61.4327L39.3912 7.57989C37.758 4.42188 33.2417 4.42188 31.6086 7.57988L3.75928 61.4327Z" fill="#F5F5F5"/>
<path d="M35.498 29.7056V46.6482" stroke="#C2441C" stroke-width="6.13318" stroke-linecap="round" stroke-linejoin="round"/>
<path d="M32.8363 56.2251L33.4858 55.9452L32.8363 56.2251C32.9758 56.5488 33.1798 56.8682 33.4821 57.1377C34.0126 57.6679 34.757 57.9655 35.501 57.9655C35.8911 57.9655 36.2608 57.8785 36.6017 57.7517L36.6107 57.7484L36.6195 57.7448C36.9505 57.6115 37.2806 57.4148 37.5608 57.1187C37.8054 56.8794 38.0363 56.5761 38.1875 56.2251C38.3434 55.8634 38.3986 55.4887 38.3986 55.1405C38.3986 54.3804 38.1042 53.6664 37.5477 53.1284C37.2978 52.8867 36.982 52.6609 36.6195 52.5149L36.6195 52.5149L36.6133 52.5124C35.561 52.1 34.2805 52.3316 33.4783 53.1261C32.9212 53.6425 32.6033 54.3782 32.6033 55.1405C32.6033 55.5269 32.6951 55.8973 32.8363 56.2251Z" fill="#C2441C" stroke="#C2441C" stroke-width="1.41441"/>
</svg>
