<svg width="149" height="20" viewBox="0 0 149 20" fill="none" xmlns="http://www.w3.org/2000/svg">
<g clip-path="url(#clip0_588_413)">
<path d="M15.6482 7.85525V19.1433H13.6411V7.88985C13.6411 3.82035 11.4957 1.7856 7.97291 1.7856C4.31174 1.7856 2.00707 3.86188 2.00707 8.34663V19.1433H0V0.159181H1.92402V3.35665C3.16978 1.05198 5.41909 0 8.35356 0C12.8245 0 15.6482 2.73377 15.6482 7.85525Z" fill="#231F20"/>
<path d="M35.2271 16.97C33.6561 18.4649 30.9431 19.3024 27.8217 19.3024C22.7003 19.3024 20.0703 17.0807 20.0703 14.0148C20.0703 11.6547 21.6137 10.056 23.7522 9.4608C22.8819 9.14233 22.135 8.55604 21.6189 7.78625C21.1028 7.01646 20.8441 6.10284 20.8801 5.17675C20.8801 2.35301 23.3231 -9.92038e-05 28.2301 -9.92038e-05C30.388 -0.0504343 32.5207 0.472581 34.4105 1.51558L33.7876 3.11432C32.1157 2.18099 30.2277 1.70364 28.3131 1.73013C24.6796 1.73013 22.8871 3.28042 22.8871 5.33593C22.8871 7.39145 24.4582 8.67182 27.1989 8.67182H31.9189V10.409H27.1158C24.1052 10.409 22.0774 11.5232 22.0774 13.911C22.0774 16.1049 23.946 17.6275 27.9048 17.6275C30.5901 17.6275 33.0332 16.8385 34.4658 15.482L35.2271 16.97Z" fill="#231F20"/>
<path d="M65.2785 0.15918V11.6825C65.2785 16.7832 62.6209 19.2955 58.1707 19.2955C55.1601 19.2955 52.9939 18.1051 51.9903 15.9596C50.9591 18.1051 48.8136 19.2955 45.8307 19.2955C41.3598 19.2955 38.7021 16.7763 38.7021 11.6825V0.15918H40.7092V11.6064C40.7092 15.7589 42.6056 17.5169 45.8307 17.5169C49.0559 17.5169 51.0145 15.752 51.0145 11.6064V0.15918H52.9662V11.6064C52.9662 15.7589 54.9179 17.5169 58.143 17.5169C61.3682 17.5169 63.2714 15.752 63.2714 11.6064V0.15918H65.2785Z" fill="#231F20"/>
<path d="M90.3941 3.65409C88.4967 2.57797 86.3827 1.93952 84.2068 1.78544V19.1431H82.1998V1.78544C80.0068 1.91792 77.8746 2.55759 75.9709 3.65409L75.2373 2.08304C77.6576 0.717348 80.3896 -0.000244141 83.1687 -0.000244141C85.9477 -0.000244141 88.6797 0.717348 91.1001 2.08304L90.3941 3.65409Z" fill="#231F20"/>
<path d="M92.208 9.64777C92.208 4.11103 96.4436 0 102.188 0C107.932 0 112.14 4.09027 112.14 9.64777C112.14 15.2053 107.884 19.3371 102.188 19.3371C96.4921 19.3371 92.208 15.1845 92.208 9.64777ZM110.133 9.64777C110.013 7.61805 109.123 5.71076 107.643 4.31602C106.164 2.92128 104.207 2.14447 102.174 2.14447C100.141 2.14447 98.1845 2.92128 96.705 4.31602C95.2255 5.71076 94.3348 7.61805 94.2151 9.64777C94.3348 11.6775 95.2255 13.5848 96.705 14.9795C98.1845 16.3743 100.141 17.1511 102.174 17.1511C104.207 17.1511 106.164 16.3743 107.643 14.9795C109.123 13.5848 110.013 11.6775 110.133 9.64777Z" fill="#231F20"/>
<path d="M118.492 6.69258V9.35022H127.545V11.0874H118.492V19.1433H116.485V6.68566C116.485 2.5954 119.143 0.0208119 123.939 0.0208119C125.894 -0.0659615 127.828 0.453769 129.476 1.50881L128.742 3.16291C127.36 2.20405 125.704 1.71846 124.022 1.77873C120.25 1.78565 118.492 3.57817 118.492 6.69258Z" fill="#231F20"/>
<path d="M148.35 0.15918V19.1433H146.399V15.9458C145.125 18.2505 142.897 19.3025 140.024 19.3025C135.574 19.3025 132.785 16.5687 132.785 11.468V0.15918H134.792V11.4126C134.792 15.4821 136.931 17.5169 140.405 17.5169C144.011 17.5169 146.316 15.4406 146.316 10.9558V0.15918H148.35Z" fill="#231F20"/>
</g>
<defs>
<clipPath id="clip0_588_413">
<rect width="148.35" height="19.3094" fill="white"/>
</clipPath>
</defs>
</svg>
